<svg xmlns="http://www.w3.org/2000/svg" viewBox="0 0 411 230"><defs><style>.cls-1{fill:#303030;}</style></defs><title>logo</title><g id="Layer_2" data-name="Layer 2"><g id="Layer_1-2" data-name="Layer 1"><path class="cls-1" d="M360.81,20a114.66,114.66,0,0,0-14-8.18,112.43,112.43,0,0,0-20.51-7.77A114.4,114.4,0,0,0,296,0H115a115,115,0,1,0,0,230H296A115,115,0,0,0,360.81,20ZM296,210H115a95,95,0,0,1,0-190H296a95.71,95.71,0,0,1,13.42.94A95,95,0,0,1,296,210Z"/><path class="cls-1" d="M181.67,60.23h15.94c8.8,0,19.59,6.13,24.09,13.7L241.43,107H277.3a8,8,0,0,1,0,15.94H240.67L221,156.07c-4.51,7.57-15.3,13.7-24.1,13.7H180.91L208.8,123H153.1l-11.43,19.55H125.73L141.83,115v-.26L125.89,87.48h15.94L153.26,107h56.3Z"/></g></g></svg>